/vscmnt/brussel_pixiu_data/_data_brussel/112/vsc11236/PredSimResults/SUBJ11opt3D/weighted-LRposFixed/trackIG/worker_01.mot
version=1
nRows=4
nColumns=50
inDegrees=yes
endheader
                time	         pelvis_tilt	         pelvis_list	     pelvis_rotation	           pelvis_tx	           pelvis_ty	           pelvis_tz	       hip_flexion_r	     hip_adduction_r	      hip_rotation_r	        knee_angle_r	       ankle_angle_r	         mtp_angle_r	       hip_flexion_l	     hip_adduction_l	      hip_rotation_l	        knee_angle_l	       ankle_angle_l	         mtp_angle_l	    lumbar_extension	      lumbar_bending	     lumbar_rotation	 ercspn_r/activation	 intobl_r/activation	 extobl_r/activation	    abd_r/activation	    add_r/activation	hamstrings_r/activation	bifemsh_r/activation	glut_max_r/activation	iliopsoas_r/activation	rect_fem_r/activation	  vasti_r/activation	gastroc_r/activation	 soleus_r/activation	tib_ant_r/activation	 ercspn_l/activation	 intobl_l/activation	 extobl_l/activation	    abd_l/activation	    add_l/activation	hamstrings_l/activation	bifemsh_l/activation	glut_max_l/activation	iliopsoas_l/activation	rect_fem_l/activation	  vasti_l/activation	gastroc_l/activation	 soleus_l/activation	tib_ant_l/activation	
          2.01080150	         -3.04444052	          1.15867824	         -5.41661468	          2.21188165	          0.94097031	          0.00530980	        -14.01417569	         -3.11775154	         -2.10142360	        -11.24954189	         12.67963933	         28.80600747	         31.33279631	         -1.82063015	         -4.53049255	         -9.42392636	          1.90336636	          0.23155494	        -14.49375121	          2.04752294	          3.23036676	          0.01000145	          0.01000079	          0.01000115	          0.04102234	          0.01000238	          0.01653607	          0.27026010	          0.02379957	          0.15420586	          0.01000429	          0.01000116	          0.16427564	          0.32089515	          0.01496823	          0.03208636	          0.25396396	          0.06682589	          0.01000104	          0.18839515	          0.04489758	          0.16107180	          0.04287734	          0.10261082	          0.04172355	          0.01526866	          0.01000070	          0.01000011	          0.41224867	
          2.02420684	         -3.16127708	          1.20780059	         -5.57170708	          2.23033116	          0.93878243	          0.00427521	        -14.63956508	         -3.36698804	         -2.37830740	        -11.86357688	         11.87819703	         30.60576625	         31.19400016	         -1.67246861	         -4.69185805	        -10.65274895	          1.35329960	          0.23960151	        -14.07452755	          1.54789397	          3.42791897	          0.02027163	          0.01000167	          0.01000324	          0.03353087	          0.05446721	          0.02184138	          0.22091088	          0.01945394	          0.16003806	          0.01000558	          0.01000219	          0.13448893	          0.30102704	          0.01223483	          0.02622794	          0.20758536	          0.05462214	          0.01000044	          0.21084079	          0.03768142	          0.13165830	          0.11506736	          0.08387202	          0.03410473	          0.01248044	          0.01381010	          0.01226746	          0.43702217	
          2.03761218	         -3.25554396	          1.26799240	         -5.70730227	          2.24922395	          0.93687079	          0.00319064	        -15.14741162	         -3.63963327	         -2.66836797	        -12.74780748	         10.93483392	         32.47306915	         30.95310735	         -1.54969035	         -4.78626325	        -12.02653535	          0.88147294	          0.21107985	        -13.61710702	          1.02821278	          3.62072530	          0.01657267	          0.01000049	          0.01000207	          0.02740749	          0.04452149	          0.01785447	          0.18057153	          0.01590158	          0.17555739	          0.01000531	          0.01000149	          0.10992867	          0.27506458	          0.01000078	          0.02146816	          0.16967630	          0.04464705	          0.06813922	          0.22347932	          0.04495380	          0.10761599	          0.12581401	          0.06855531	          0.02787717	          0.01020151	          0.01128846	          0.01002727	          0.50583726	
          2.05101753	         -3.33034072	          1.31622245	         -5.81260693	          2.26821636	          0.93545211	          0.00202478	        -15.42619277	         -3.91275441	         -2.96860778	        -14.04641921	          9.81541278	         34.41298821	         30.72280581	         -1.44900633	         -4.95486613	        -13.41807536	          0.21644173	          0.18278062	        -13.16378987	          0.52058349	          3.80007469	          0.04986583	          0.01000064	          0.01000135	          0.02240236	          0.04316890	          0.02093442	          0.14759797	          0.01299808	          0.14912251	          0.01000406	          0.01000177	          0.08985350	          0.24729197	          0.01000036	          0.03156187	          0.13869005	          0.03649362	          0.10456608	          0.27252949	          0.04130450	          0.08796394	          0.13545760	          0.05603575	          0.02278687	          0.02008468	          0.01000079	          0.01000030	          0.56065706	
